<?xml version="1.0"?>
<svg width="16" height="16" xmlns="http://www.w3.org/2000/svg" xmlns:svg="http://www.w3.org/2000/svg" xmlns:xlink="http://www.w3.org/1999/xlink" enable-background="new 0 0 16 16" version="1.1" xml:space="preserve">
 <g class="layer">
  <title>Layer 1</title>
  <path d="m16,4l0,10l-16,0l0,-12l7,0l1.3,2l7.7,0z" fill="#ffa856" id="svg_1"/>
  <path d="m16,5l-7.7,0l-1.3,2l-7,0l0,-3l16,0l0,1z" enable-background="new    " id="svg_2" opacity="0.4"/>
  <use id="svg_4" transform="matrix(1 0 0 1 0 0) matrix(0.0270833 0 0 0.0270833 0 0)" x="0" xlink:href="#svg_3" y="0"/>
 </g>
 <defs>
  <symbol height="16" id="svg_3" viewBox="0 0 512 512" width="16" xmlns="http://www.w3.org/2000/svg">
   <!--!Font Awesome Free 6.5.1 by @fontawesome - https://fontawesome.com License - https://fontawesome.com/license/free Copyright 2023 Fonticons, Inc.-->
   <path d="m345,39.1l127.8,129.3c52.4,53 52.4,138.2 0,191.2l-112,113.3c-9.3,9.4 -24.5,9.5 -33.9,0.2s-9.5,-24.5 -0.2,-33.9l111.9,-113.3c33.9,-34.3 33.9,-89.4 0,-123.7l-127.7,-129.3c-9.3,-9.4 -9.2,-24.6 0.2,-33.9s24.6,-9.2 33.9,0.2l0,-0.1zm-345,190.4l0,-149.5c0,-26.5 21.5,-48 48,-48l149.5,0c17,0 33.3,6.7 45.3,18.7l168,168c25,25 25,65.5 0,90.5l-133.5,133.5c-25,25 -65.5,25 -90.5,0l-168,-168c-12.1,-12 -18.8,-28.2 -18.8,-45.2zm144,-85.5a32,32 0 1 0 -64,0a32,32 0 1 0 64,0z"/>
  </symbol>
 </defs>
</svg>